<?xml version="1.0" ?><svg id="Layer_1" style="enable-background:new 0 0 512 512;" version="1.1" viewBox="0 0 512 512" xml:space="preserve" xmlns="http://www.w3.org/2000/svg" xmlns:xlink="http://www.w3.org/1999/xlink"><path d="M256,41.5C117.9,41.5,6,130.2,6,239.6C6,305,46,363,107.6,399.1c-6,22.2-20,50-52.6,69.3c0,0,61.4,16.6,113.6-43.1  c27.2,8,56.6,12.4,87.4,12.4c138.1,0,250-88.7,250-198.1S394.1,41.5,256,41.5z M178.6,290.4h-70v-108h21.7v91.4h48.4V290.4z   M216.1,290.4h-21.7v-108h21.7V290.4z M287,290.4h-22.3l-36.6-108H251l23.4,78.7l1.3,5.9h0.4l1.3-5.7l23.5-78.9h22.8L287,290.4z   M403.5,290.4h-69.3v-108h69.1v16.7h-47.5v27.2h40.1V243h-40.1v30.9h47.6V290.4z"/></svg>